<svg height="512pt" viewBox="-16 0 512 512" width="512pt" xmlns="http://www.w3.org/2000/svg"><path d="m210 90v-81.210938l-81.210938 81.210938zm0 0"/><path d="m240 120h-120v61.515625c50.75 7.355469 90 50.730469 90 103.484375 0 36.902344-19.242188 69.277344-48.117188 88.007812 32.496094 15.226563 57.675782 42.917969 69.824219 76.992188h248.292969v-450h-240zm180 270h-180v-30h180zm0-60h-180v-30h180zm-75-150c-24.8125 0-45-20.1875-45-45 0-19.53125 12.578125-36.023438 30-42.238281v-32.761719h30v32.761719c17.421875 6.214843 30 22.707031 30 42.238281h-30c0-8.277344-6.722656-15-15-15s-15 6.722656-15 15 6.722656 15 15 15c24.8125 0 45 20.1875 45 45 0 19.53125-12.578125 36.023438-30 42.238281v32.761719h-30v-32.761719c-17.421875-6.214843-30-22.707031-30-42.238281h30c0 8.277344 6.722656 15 15 15s15-6.722656 15-15-6.722656-15-15-15zm0 0"/><path d="m180 285c0 41.421875-33.578125 75-75 75s-75-33.578125-75-75 33.578125-75 75-75 75 33.578125 75 75zm0 0"/><path d="m105 390c-57.988281 0-105 48.011719-105 106v16h210v-16c0-57.988281-47.011719-106-105-106zm0 0"/></svg>